Coordinates
version=1
nRows=5
nColumns=63
inDegrees=yes

Units are S.I. units (second, meters, Newtons, ...)
If the header above contains a line with 'inDegrees', this indicates whether rotational values are in degrees (yes) or radians (no).

endheader
time	pelvis_tilt	pelvis_list	pelvis_rotation	pelvis_tx	pelvis_ty	pelvis_tz	hip_flexion_r	hip_adduction_r	hip_rotation_r	knee_angle_r	knee_angle_r_beta	ankle_angle_r	subtalar_angle_r	mtp_angle_r	hip_flexion_l	hip_adduction_l	hip_rotation_l	knee_angle_l	knee_angle_l_beta	ankle_angle_l	subtalar_angle_l	mtp_angle_l	L5_S1_Flex_Ext	L5_S1_Lat_Bending	L5_S1_axial_rotation	L4_L5_Flex_Ext	L4_L5_Lat_Bending	L4_L5_axial_rotation	L3_L4_Flex_Ext	L3_L4_Lat_Bending	L3_L4_axial_rotation	L2_L3_Flex_Ext	L2_L3_Lat_Bending	L2_L3_axial_rotation	L1_L2_Flex_Ext	L1_L2_Lat_Bending	L1_L2_axial_rotation	L1_T12_Flex_Ext	L1_T12_Lat_Bending	L1_T12_axial_rotation	Abs_r3	Abs_r2	Abs_r1	Abs_t1	Abs_t2	neck_flexion	neck_bending	neck_rotation	arm_flex_r	arm_add_r	arm_rot_r	elbow_flex_r	pro_sup_r	wrist_flex_r	wrist_dev_r	arm_flex_l	arm_add_l	arm_rot_l	elbow_flex_l	pro_sup_l	wrist_flex_l	wrist_dev_l
      4.88135593	      0.55064085	     -5.32001729	     88.93750513	      0.31568523	      1.00913811	      0.32828734	     -3.34385447	      2.77241397	     17.46724879	      0.32881868	      0.00573897	     32.16134286	    -11.35244574	      0.00000000	     -1.95743868	     -4.02519295	     15.02829145	      0.80749115	      0.01409338	     32.42610323	    -12.91693675	      0.00000000	      0.19015979	      0.16478586	      1.33567451	      0.35314575	      0.21916519	      1.41915417	      0.31241353	      0.40066033	      1.41915417	      0.21733363	      0.40066033	      1.16871520	      0.17658239	      0.33603132	      1.08523554	      0.10865731	      0.25525329	      1.00175589	      1.35829240	      1.86409056	      7.42862094	      0.00000000	      0.00000000	     24.88848904	     -1.27647641	     -4.22543939	     12.81348601	    -10.93462454	     72.98527158	     43.08488697	      2.72546386	     -7.16529206	     18.77498640	     17.04551684	     -5.84996040	     70.14534877	     40.11749883	     62.45459911	      3.61118926	      7.04389031
      4.89830508	      0.63996400	     -5.11804822	     89.45207388	      0.31441789	      1.00914657	      0.32797407	     -3.63264375	      2.86361198	     16.53698065	      0.32707789	      0.00570859	     32.10190842	    -11.06356248	      0.00000000	     -2.13111813	     -4.12175497	     16.06967875	      0.85556673	      0.01493246	     32.32294304	    -13.51417125	      0.00000000	      0.17381187	      0.19734456	      1.10529696	      0.32278603	      0.26246827	      1.17437802	      0.28555552	      0.47982357	      1.17437802	      0.19864959	      0.47982357	      0.96713484	      0.16140170	      0.40242503	      0.89805378	      0.09931610	      0.30568673	      0.82897272	      1.24152081	      2.23240115	      6.14733008	      0.00000000	      0.00000000	     24.82583199	     -0.95723201	     -2.32180381	     13.60021736	    -10.99438997	     75.66309151	     42.79078248	      2.63311842	     -5.50309944	     17.63258055	     17.55626916	     -5.74196610	     71.58833069	     39.60820775	     59.92477864	      4.05187353	      6.64895859
      4.91525424	      0.58329317	     -4.86394671	     89.52958722	      0.31394399	      1.00928736	      0.32738655	     -3.96115011	      2.79124692	     16.31231792	      0.32684885	      0.00570459	     32.17011072	    -11.05413571	      0.00000000	     -2.45485152	     -4.06439455	     16.33549155	      0.87138200	      0.01520848	     32.21738290	    -13.66155488	      0.00000000	      0.15153058	      0.19431107	      1.06936334	      0.28140744	      0.25843372	      1.13619855	      0.24894959	      0.47244792	      1.13619855	      0.17318430	      0.47244792	      0.93569292	      0.14071130	      0.39623912	      0.86885771	      0.08658457	      0.30098784	      0.80202250	      1.08236779	      2.19808563	      5.94747808	      0.00000000	      0.00000000	     24.74552229	     -1.32120888	     -2.35548618	     13.49885974	    -11.02398361	     75.84936283	     42.82631756	      2.61570386	     -5.13313545	     16.77602319	     17.96716366	     -5.52070862	     72.61833454	     39.18743274	     59.51037752	      4.17163228	      7.05475880
      4.93220339	      0.53746574	     -4.68395972	     89.66521749	      0.31368985	      1.00934459	      0.32670596	     -4.21132796	      2.74855061	     15.93893603	      0.32352772	      0.00564662	     32.45175188	    -10.76844175	      0.00000000	     -2.69774025	     -4.03849923	     17.43579664	      0.85550829	      0.01493144	     31.93404647	    -14.73717283	      0.00000000	      0.14703886	      0.17263880	      1.09873572	      0.27306586	      0.22960960	      1.16740670	      0.24157014	      0.41975398	      1.16740670	      0.16805071	      0.41975398	      0.96139375	      0.13654028	      0.35204504	      0.89272277	      0.08401800	      0.26741750	      0.82405179	      1.05028385	      1.95292464	      6.11083843	      0.00000000	      0.00000000	     24.83946678	     -1.55260327	     -3.53643756	     13.55838948	    -11.13558592	     76.99533709	     42.81553541	      2.79945759	     -3.69118134	     14.29337697	     18.96382788	     -5.43739704	     76.35475857	     38.73883065	     54.69509873	      3.80461743	      6.17929207
      4.94915254	      0.46009971	     -4.51705743	     89.86740350	      0.31333872	      1.00942926	      0.32599062	     -4.38238010	      2.69073766	     14.51977102	      0.47978505	      0.00837383	     33.31433666	     -9.06005468	      0.00000000	     -2.74946111	     -3.96493513	     16.33618994	      1.19646018	      0.02088217	     32.64406062	    -12.67115114	      0.00000000	      0.14611038	      0.15108635	      1.13365030	      0.27134160	      0.20094485	      1.20450344	      0.24004475	      0.36735136	      1.20450344	      0.16698956	      0.36735136	      0.99194401	      0.13567810	      0.30809529	      0.92109087	      0.08348747	      0.23403276	      0.85023773	      1.04365187	      1.70911903	      6.30502288	      0.00000000	      0.00000000	     24.79544757	     -1.69738997	     -4.20443052	     13.32438352	    -11.20901496	     76.77541297	     42.88898809	      4.62378955	     -3.40744270	     13.09138352	     19.01092916	     -5.28471637	     76.83340733	     38.53304353	     54.14226418	      3.71972428	      6.35145398
